# xmcd
#
# Track frame offsets: 
#        150
#        21262
#        36100
#        58760
#        71080
#        83382
#        102207
#        128120
#        141212
#        167625
#        191985
#        210025
#        232772
#
# Disc length: 3281 seconds
#
# Revision: 2
# Processed by: cddbd v1.4PL0 Copyright (c) Steve Scherf et al.
# Submitted via: ExactAudioCopy v0.90a11
#
DISCID=a70ccf0d
DTITLE=Anne Murray - An Intimate Evening With Anne Murray...Live
DYEAR=1900
DGENRE=
TTITLE0=Time Don't Run Out On Me
TTITLE1=Shame On Me
TTITLE2=That's The Way It Goes
TTITLE3=A Love Song
TTITLE4=Save The Last Dance For Me
TTITLE5=Somebody's Always Saying Goodbye
TTITLE6=Insensitive (Featuring Jann Arden)
TTITLE7=Snowbird (With Jann Arden)
TTITLE8=Croonin' Medley
TTITLE9=What Would It Take (With Bryan Adams)
TTITLE10=You Needed Me
TTITLE11=Could I Have This Dance
TTITLE12=Danny's Song
EXTD=
EXTT0=
EXTT1=
EXTT2=
EXTT3=
EXTT4=
EXTT5=
EXTT6=
EXTT7=
EXTT8=
EXTT9=
EXTT10=
EXTT11=
EXTT12=
PLAYORDER=
